<svg xmlns="http://www.w3.org/2000/svg" width="800" height="600" viewBox="0 0 800 600">
  <defs>
    <linearGradient id="glow" x1="0" y1="0" x2="1" y2="1">
      <stop offset="0" stop-color="#7f40ff"/><stop offset="1" stop-color="#c481ff"/>
    </linearGradient>
  </defs>
  <rect width="800" height="600" rx="14" fill="#0d0a12"/>
  <!-- top bar -->
  <rect x="0" y="0" width="800" height="52" rx="14" fill="#120d1a"/>
  <circle cx="28" cy="26" r="6" fill="#f87171"/><circle cx="48" cy="26" r="6" fill="#fbbf24"/><circle cx="68" cy="26" r="6" fill="#4ade80"/>
  <text x="400" y="31" font-family="Segoe UI, sans-serif" font-size="14" fill="#8b8494" text-anchor="middle">AI Talent Operations Assistant</text>
  <!-- sidebar -->
  <rect x="16" y="68" width="150" height="516" rx="10" fill="#151020" stroke="#241b33"/>
  <rect x="32" y="92" width="90" height="10" rx="5" fill="#7f40ff"/>
  <rect x="32" y="124" width="118" height="8" rx="4" fill="#2a2436"/>
  <rect x="32" y="148" width="100" height="8" rx="4" fill="#2a2436"/>
  <rect x="32" y="172" width="110" height="8" rx="4" fill="#2a2436"/>
  <rect x="32" y="196" width="86" height="8" rx="4" fill="#2a2436"/>
  <!-- profile card -->
  <rect x="182" y="68" width="290" height="300" rx="10" fill="#151020" stroke="#241b33"/>
  <circle cx="230" cy="122" r="26" fill="url(#glow)"/>
  <rect x="270" y="104" width="130" height="12" rx="6" fill="#3a3346"/>
  <rect x="270" y="126" width="90" height="9" rx="4" fill="#2a2436"/>
  <text x="198" y="176" font-family="Segoe UI, sans-serif" font-size="12" fill="#8b8494">EXTRACTED SKILLS</text>
  <rect x="198" y="188" width="64" height="22" rx="11" fill="#241b33" stroke="#7f40ff"/><text x="230" y="203" font-family="Segoe UI, sans-serif" font-size="11" fill="#c481ff" text-anchor="middle">Python</text>
  <rect x="270" y="188" width="46" height="22" rx="11" fill="#241b33" stroke="#7f40ff"/><text x="293" y="203" font-family="Segoe UI, sans-serif" font-size="11" fill="#c481ff" text-anchor="middle">Go</text>
  <rect x="324" y="188" width="56" height="22" rx="11" fill="#241b33" stroke="#7f40ff"/><text x="352" y="203" font-family="Segoe UI, sans-serif" font-size="11" fill="#c481ff" text-anchor="middle">LLMs</text>
  <rect x="388" y="188" width="52" height="22" rx="11" fill="#241b33" stroke="#7f40ff"/><text x="414" y="203" font-family="Segoe UI, sans-serif" font-size="11" fill="#c481ff" text-anchor="middle">RAG</text>
  <text x="198" y="242" font-family="Segoe UI, sans-serif" font-size="12" fill="#8b8494">EXPERIENCE LEVEL</text>
  <rect x="198" y="254" width="258" height="10" rx="5" fill="#241b33"/>
  <rect x="198" y="254" width="200" height="10" rx="5" fill="url(#glow)"/>
  <rect x="198" y="286" width="240" height="8" rx="4" fill="#2a2436"/>
  <rect x="198" y="306" width="258" height="8" rx="4" fill="#2a2436"/>
  <rect x="198" y="326" width="210" height="8" rx="4" fill="#2a2436"/>
  <!-- brief card -->
  <rect x="488" y="68" width="296" height="300" rx="10" fill="#151020" stroke="#241b33"/>
  <text x="504" y="98" font-family="Segoe UI, sans-serif" font-size="12" fill="#8b8494">AI PROFILE BRIEF</text>
  <rect x="504" y="112" width="180" height="12" rx="6" fill="#3a3346"/>
  <rect x="504" y="140" width="264" height="8" rx="4" fill="#2a2436"/>
  <rect x="504" y="160" width="248" height="8" rx="4" fill="#2a2436"/>
  <rect x="504" y="180" width="264" height="8" rx="4" fill="#2a2436"/>
  <rect x="504" y="200" width="196" height="8" rx="4" fill="#2a2436"/>
  <rect x="504" y="228" width="264" height="8" rx="4" fill="#2a2436"/>
  <rect x="504" y="248" width="236" height="8" rx="4" fill="#2a2436"/>
  <rect x="504" y="268" width="256" height="8" rx="4" fill="#2a2436"/>
  <rect x="504" y="296" width="120" height="22" rx="11" fill="#12261a" stroke="#4ade80"/><text x="564" y="311" font-family="Segoe UI, sans-serif" font-size="11" fill="#4ade80" text-anchor="middle">evidence linked</text>
  <!-- review bar -->
  <rect x="182" y="384" width="602" height="88" rx="10" fill="#151020" stroke="#241b33"/>
  <text x="206" y="418" font-family="Segoe UI, sans-serif" font-size="13" fill="#8b8494">Human review required</text>
  <rect x="206" y="430" width="220" height="8" rx="4" fill="#2a2436"/>
  <rect x="530" y="406" width="112" height="36" rx="18" fill="url(#glow)"/><text x="586" y="429" font-family="Segoe UI, sans-serif" font-size="13" fill="#ffffff" text-anchor="middle">Approve</text>
  <rect x="654" y="406" width="112" height="36" rx="18" fill="#241b33" stroke="#7f40ff"/><text x="710" y="429" font-family="Segoe UI, sans-serif" font-size="13" fill="#c481ff" text-anchor="middle">Override</text>
  <!-- queue -->
  <rect x="182" y="488" width="602" height="96" rx="10" fill="#151020" stroke="#241b33"/>
  <text x="206" y="516" font-family="Segoe UI, sans-serif" font-size="12" fill="#8b8494">QUEUE — 3,000 UPDATES / MONTH</text>
  <rect x="206" y="530" width="380" height="8" rx="4" fill="#2a2436"/><rect x="700" y="526" width="66" height="18" rx="9" fill="#12261a" stroke="#4ade80"/>
  <rect x="206" y="554" width="420" height="8" rx="4" fill="#2a2436"/><rect x="700" y="550" width="66" height="18" rx="9" fill="#2b2210" stroke="#fbbf24"/>
</svg>
